<svg xmlns="http://www.w3.org/2000/svg" width="256" height="256"><g style="display:inline;opacity:1"><path d="M7.716.38.164 19.607a1.7 1.7 96.6 0 0-.1.863l1.788 12.34a.38.38 39.305 0 0 .398.325l5.667-.311a.193.193 55.145 0 1 .187.269l-4.5 10.384a1.35 1.35 97.595 0 0-.098.73l1.685 11.627a.654.654 39.043 0 0 .689.559l6.02-.386a.143.143 57.548 0 1 .135.211l-5.07 9.237a1.87 1.87 100.258 0 0-.211 1.165l1.853 12.787a.61.61 37.223 0 0 .68.517L58.7 73.589a1.54 1.54 156.369 0 0 .794-.348L74.845 60.38a.75.75 108.372 0 0 .248-.747l-3.481-14.728a.53.53 35.82 0 0-.564-.406l-6.347.562a.126.126 56.177 0 1-.123-.184l4.607-8.88a1.3 1.3 97.058 0 0 .11-.888l-2.998-12.683a.6.6 37.86 0 0-.594-.462l-9.75.167c-.202.004-.275-.13-.164-.297 2.348-3.558 4.282-6.503 7.394-11.137.14-.208.206-.573.148-.816L61.097.426A.554.554 38.35 0 0 60.558 0H8.274a.6.6 145.722 0 0-.558.38" style="display:inline;fill:#fff;stroke-width:1.3" transform="matrix(3.41033 0 0 3.20285 -.16 0)"/><path d="m57.507 3.286-44.861.051a.303.303 130.26 0 0-.299.353l1.275 7.689a.34.34 39.916 0 0 .34.285l13.044-.172h.002l19.978-.263c-.567.861-4.777 7.266-9.923 15.101-2.058 3.045-3.37 5.076-6.018 9.162-3.827 5.827-7.618 11.601-10.446 15.914-.152.231-.238.64-.193.912l1.588 9.581a.65.65 37.028 0 0 .717.54l47.536-5.441a.348.348 125.022 0 0 .299-.426l-1.836-7.69a.364.364 35.603 0 0-.388-.278l-10.533.99-13.115 1.232-9.584.9-.002.014-2.067.197 2.631-4.242L59.125 9.783a.83.83 99.172 0 0 .102-.628L57.9 3.595a.404.404 38.257 0 0-.393-.31" style="display:inline;stroke-width:1.3" transform="scale(3.41033 3.20285)"/><path d="m18.142 36.2 12.903-.708c2.246-3.004 4.126-6.22 6.017-9.162l-8.033.32 10.213-15.318c-3.658-.05-9.286-.032-12.236.16L16.33 26.252a.8.8 103.233 0 0-.143.607l1.486 8.966a.45.45 38.723 0 0 .468.376M62.83 25.314l-9.568.372-5.867 8.896 6.783-.377-9.504 16.621c4.882-.101 9.465-.574 13.115-1.232l7.53-14.173a.8.8 0 0 0 .063-.483c-.304-1.29-1.69-7.162-2.24-9.389a.32.32 0 0 0-.312-.235" style="display:inline;stroke-width:1.3" transform="scale(3.41033 3.20285)"/></g></svg>